<svg xmlns="http://www.w3.org/2000/svg" xmlns:xlink="http://www.w3.org/1999/xlink" width="1920" zoomAndPan="magnify" viewBox="0 0 1440 1439.999935" height="1920" preserveAspectRatio="xMidYMid meet" version="1.0"><defs><clipPath id="79a072f90e"><path d="M 23.285156 37.539062 L 1402.535156 37.539062 L 1402.535156 1416.789062 L 23.285156 1416.789062 Z M 23.285156 37.539062 " clip-rule="nonzero"/></clipPath></defs><g clip-path="url(#79a072f90e)"><path fill="#000000" d="M 712.503906 37.539062 C 903.191406 37.539062 1075.292969 115.109375 1200.535156 239.539062 C 1324.964844 363.972656 1402.535156 536.882812 1402.535156 726.761719 C 1402.535156 917.449219 1324.964844 1089.550781 1200.535156 1214.792969 C 1075.292969 1339.222656 903.191406 1416.789062 712.503906 1416.789062 C 522.625 1416.789062 349.714844 1339.222656 225.28125 1214.792969 C 100.851562 1089.550781 23.285156 917.449219 23.285156 726.761719 C 23.285156 536.882812 100.851562 363.972656 225.28125 239.539062 C 349.714844 115.109375 522.625 37.539062 712.503906 37.539062 Z M 1154.476562 284.789062 C 1041.359375 172.476562 885.414062 102.179688 712.503906 102.179688 C 540.402344 102.179688 383.648438 172.476562 270.53125 284.789062 C 158.21875 397.90625 87.921875 554.660156 87.921875 726.761719 C 87.921875 899.671875 158.21875 1055.617188 270.53125 1168.734375 C 383.648438 1281.855469 540.402344 1352.152344 712.503906 1352.152344 C 885.414062 1352.152344 1041.359375 1281.855469 1154.476562 1168.734375 C 1267.597656 1055.617188 1337.894531 899.671875 1337.894531 726.761719 C 1337.894531 554.660156 1267.597656 397.90625 1154.476562 284.789062 Z M 1154.476562 284.789062 " fill-opacity="1" fill-rule="nonzero"/></g><path fill="#000000" d="M 390.921875 351.042969 C 407.890625 334.074219 426.472656 317.914062 445.867188 303.371094 C 466.066406 288.828125 486.265625 275.898438 507.273438 264.585938 C 523.433594 256.507812 542.824219 262.164062 550.90625 277.515625 C 556.5625 288.828125 555.753906 300.949219 550.097656 310.644531 C 507.273438 392.25 491.921875 484.363281 505.65625 574.050781 C 518.585938 661.3125 558.984375 746.152344 626.046875 813.21875 C 693.921875 881.089844 777.953125 921.488281 866.023438 934.417969 C 955.710938 948.152344 1049.4375 932.800781 1131.855469 889.167969 L 1131.046875 888.359375 C 1147.207031 880.28125 1166.597656 885.9375 1175.484375 902.097656 C 1181.140625 912.601562 1179.527344 925.527344 1173.871094 935.226562 C 1162.558594 955.425781 1150.4375 974.816406 1135.894531 993.402344 C 1121.351562 1012.792969 1106 1031.375 1089.03125 1048.34375 C 992.070312 1145.304688 866.023438 1192.976562 739.976562 1192.976562 C 613.929688 1192.976562 487.074219 1145.304688 390.921875 1048.34375 C 294.769531 952.191406 246.289062 826.144531 246.289062 700.097656 C 246.289062 573.242188 294.769531 447.195312 390.921875 351.042969 Z M 453.136719 380.9375 C 447.480469 385.789062 442.632812 391.441406 436.976562 397.097656 C 352.945312 480.324219 310.929688 590.210938 310.929688 700.097656 C 310.929688 809.984375 352.945312 919.066406 436.976562 1003.097656 C 520.199219 1087.128906 630.089844 1128.335938 739.976562 1128.335938 C 849.863281 1128.335938 959.75 1087.128906 1042.976562 1003.097656 C 1048.628906 997.441406 1053.480469 991.785156 1059.132812 986.128906 C 992.878906 1004.710938 924.199219 1008.753906 856.328125 998.25 C 755.328125 983.703125 658.367188 936.839844 580.800781 859.273438 C 502.425781 781.707031 456.371094 683.9375 441.824219 582.9375 C 431.320312 515.875 435.363281 447.195312 453.136719 380.9375 Z M 453.136719 380.9375 " fill-opacity="1" fill-rule="nonzero"/></svg>